    <?xml version="1.0" encoding="utf-8"?>
    <!-- Generator: Adobe Illustrator 27.0.0, SVG Export Plug-In . SVG Version: 6.00 Build 0)  -->
    <svg version="1.1" id="图层_1" xmlns="http://www.w3.org/2000/svg"
      xmlns:xlink="http://www.w3.org/1999/xlink" x="0px" y="0px"
      viewBox="0 0 2400 1980" style="enable-background:new 0 0 2400 1980;"
      xml:space="preserve">
      <style type="text/css">
      .st0{fill:#25A79A;stroke:#36AFB1;stroke-miterlimit:10;}
      .st1{fill:#3C6580;stroke:#8A8A8A;stroke-miterlimit:10;}
      .st2{fill:#FFFFFF;stroke:#040000;stroke-width:2;stroke-miterlimit:10;}
      .st3{fill:#040000;stroke:#040000;stroke-width:2;stroke-miterlimit:10;}
      .st4{fill:#070001;}
      .st5{fill:#D71718;}
      .st6{font-family:'ArialMT';}
      .st7{font-size:11px;}
      .st8{fill:#040000;}
      .st9{font-size:20px;}
      .st10{fill:#F2EED1;}
      .st11{fill:#E58995;}
      .st12{fill:#CF6274;}
      .st13{fill:#D0E1F1;}
      .st14{fill:#9FC5E4;}
      .st15{fill:#48406C;}
      .st16{fill:#040000;stroke:#F0EFEF;stroke-miterlimit:10;}
      .st17{fill:#FFFFFF;stroke:#B5B5B6;stroke-miterlimit:10;}
      .st18{fill:#040000;stroke:#FFFFFF;stroke-width:3;stroke-miterlimit:10;}
      .st19{font-size:8px;}
      .st20{fill:#FFFFFF;stroke:#040000;stroke-width:3;stroke-miterlimit:10;}
      .st21{fill:#CCCCCC;stroke:#040000;stroke-width:3;stroke-miterlimit:10;}
      .st22{fill:none;stroke:#040000;stroke-width:2.5376;stroke-miterlimit:10;}
      .st23{fill:none;stroke:#040000;stroke-width:2.3563;stroke-miterlimit:10;}
      .st24{fill:#FFFFFF;stroke:#040000;stroke-width:1.2906;stroke-miterlimit:10;}
      .st25{fill:#040000;stroke:#040000;stroke-width:1.2906;stroke-miterlimit:10;}
      .st26{fill:#B8292D;stroke:#999999;stroke-width:1.2091;stroke-miterlimit:10;}
      .st27{fill:#B8292D;stroke:#7F8080;stroke-width:1.2091;stroke-miterlimit:10;}
      .st28{fill:#FFFFFF;stroke:#999999;stroke-width:1.2091;stroke-miterlimit:10;}
      .st29{fill:#FFFFFF;stroke:#7F8080;stroke-width:1.2091;stroke-miterlimit:10;}
      .st30{fill:#CCCCCC;stroke:#41210D;stroke-width:1.5072;stroke-miterlimit:10;}
      .st31{fill:#CCCCCC;stroke:#41210D;stroke-width:0.75;stroke-miterlimit:10;}
      .st32{opacity:0.86;}
      .st33{fill:#CCCCCC;}
      .st34{fill:#FFFFFF;}
      <!-- .st35{fill:#E7211A;} -->
      .st35{fill:#dd8d8a;}
      .st36{fill:#EFEA3C;}
      .st37{fill:#6AB82D;}
      .st38{fill:#B4B3B3;stroke:#666767;stroke-width:1.5737;stroke-miterlimit:10;}
      .st39{font-family:'AdobeSongStd-Light-GBpc-EUC-H';}
      .st40{font-size:12px;}
      .st41{fill:none;stroke:#000000;stroke-width:0.25;stroke-miterlimit:10;}
      .st42{fill:none;stroke:#000000;stroke-miterlimit:10;}
      .st43{fill:#040000;stroke:#040000;stroke-width:0.45;stroke-miterlimit:10;}
      .st44{fill:#999899;stroke:#999899;stroke-width:0.45;stroke-miterlimit:10;}
      .st45{fill:#DE2525;stroke:#E71F19;stroke-width:0.44;stroke-miterlimit:10;}
      .st46{fill:#999899;stroke:#999899;stroke-width:0.44;stroke-miterlimit:10;}
      .st47{fill:#040000;stroke:#040000;stroke-width:0.44;stroke-miterlimit:10;}
    </style>
      <g>
        <polygon class="st0"
          points="813.48,894.47 813.48,652.07 1197.75,652.08 1197.75,807.97 1202.59,816.76 1202.59,867.73 
        1197.06,876.53 1197.06,894.48 	" />
        <path class="st1"
          d="M851.61,888.98l-48.46,0c-4.07,0-7.37-3.3-7.37-7.37l0-16.46c0-4.07,3.3-7.37,7.37-7.37l48.46,0
        c4.07,0,7.37,3.3,7.37,7.37l0,16.46C858.98,885.68,855.68,888.98,851.61,888.98z" />
        <path class="st1"
          d="M873.35,795.78l-72.74,0c-6.31,0-11.43-5.12-11.43-11.43l0-29.94c0-6.31,5.12-11.43,11.43-11.43l72.74,0
        c6.31,0,11.43,5.12,11.43,11.43l0,29.94C884.78,790.66,879.66,795.78,873.35,795.78z" />
        <path class="st2"
          d="M861.98,720.58l-25.2,0c-2.1,0-3.8-1.7-3.8-3.8l0-20.4c0-2.1,1.7-3.8,3.8-3.8l25.2,0c2.1,0,3.8,1.7,3.8,3.8
        l0,20.4C865.78,718.88,864.08,720.58,861.98,720.58z" />
        <path class="st3"
          d="M850.59,710.43l-1.08,0c-1.91,0-3.46-1.55-3.46-3.46l0-1.08c0-1.91,1.55-3.46,3.46-3.46h1.08
        c1.91,0,3.46,1.55,3.46,3.46v1.08C854.05,708.89,852.5,710.43,850.59,710.43z" />
        <path class="st4"
          d="M942.89,752.57c0,1.67-1.35,3.03-3.03,3.03l-19.17,0c-1.67,0-3.03-1.35-3.03-3.03l0-19.17
        c0-1.67,1.35-3.03,3.03-3.03l19.17,0c1.67,0,3.03,1.35,3.03,3.03L942.89,752.57L942.89,752.57z M914.27,751.25l5.04,0l0,1.85
        l-5.04,0L914.27,751.25z M914.27,747.59l5.04,0v1.85l-5.04,0L914.27,747.59z M914.27,743.92l5.04,0l0,1.85l-5.04,0V743.92z
         M914.27,740.26l5.04,0v1.85l-5.04,0L914.27,740.26z M914.27,736.59l5.04,0l0,1.85l-5.04,0L914.27,736.59z M914.27,732.93l5.04,0
        l0,1.85l-5.04,0C914.27,734.78,914.27,732.93,914.27,732.93z M941.22,751.23l5.04,0l0,1.85l-5.04,0L941.22,751.23z M941.22,747.56
        l5.04,0l0,1.85l-5.04,0V747.56z M941.22,743.9l5.04,0v1.85l-5.04,0L941.22,743.9z M941.22,740.23l5.04,0l0,1.85l-5.04,0V740.23z
         M941.22,736.57l5.04,0l0,1.85l-5.04,0L941.22,736.57z M941.22,732.9l5.04,0l0,1.85l-5.04,0L941.22,732.9L941.22,732.9z
         M938.51,726.98h1.85l0,5.04l-1.85,0L938.51,726.98z M934.85,726.98l1.85,0l0,5.04l-1.85,0L934.85,726.98z M931.18,726.98h1.85
        l0,5.04l-1.85,0L931.18,726.98z M927.52,726.98l1.85,0l0,5.04h-1.85L927.52,726.98z M923.85,726.98l1.85,0l0,5.04l-1.85,0
        L923.85,726.98z M920.19,726.98l1.85,0l0,5.04h-1.85C920.19,732.02,920.19,726.98,920.19,726.98z M938.51,753.94l1.85,0l0,5.04
        h-1.85L938.51,753.94z M934.85,753.94l1.85,0l0,5.04l-1.85,0L934.85,753.94z M931.18,753.94l1.85,0l0,5.04h-1.85L931.18,753.94z
         M927.52,753.94l1.85,0l0,5.04l-1.85,0L927.52,753.94z M923.85,753.94h1.85l0,5.04l-1.85,0L923.85,753.94z M920.19,753.94l1.85,0
        l0,5.04l-1.85,0L920.19,753.94z" />
        <path class="st4" d="M1054.42,725.03" />
        <path class="st2"
          d="M1071.39,755.61l-2.46,0c-5.83,0-10.56-4.73-10.56-10.56l0-2.46c0-5.83,4.73-10.56,10.56-10.56l2.46,0
        c5.83,0,10.56,4.73,10.56,10.56v2.46C1081.95,750.88,1077.22,755.61,1071.39,755.61z" />
        <path class="st2"
          d="M1093.74,754.79L1093.74,754.79c-6.51,0-11.79-5.28-11.79-11.79l0,0c0-6.51,5.28-11.79,11.79-11.79l0,0
        c6.51,0,11.79,5.28,11.79,11.79l0,0C1105.52,749.51,1100.25,754.79,1093.74,754.79z" />
        <text
          transform="matrix(1 2.359758e-05 -2.359758e-05 1 1090.9833 746.4795)"
          class="st5 st6 st7">+</text>
        <text
          transform="matrix(1 2.359758e-05 -2.359758e-05 1 1065.8589 748.3496)"
          class="st8 st6 st9">-</text>
        <text
          transform="matrix(1 2.359758e-05 -2.359758e-05 1 1028.152 787.0729)"
          class="st10 st6 st9">lookmori Arduino</text>
        <path class="st11"
          d="M988.97,728.56l-0.21-6.83l7.42-0.23l0.21,6.83L988.97,728.56z" />
        <path class="st12"
          d="M988.81,723.56l-0.06-1.84l7.37-0.23l0.06,1.84L988.81,723.56z" />
        <path class="st13"
          d="M1003.61,721.53l0.2,6.3c0.02,0.8-0.6,1.47-1.4,1.49l-5.97,0.19l-0.29-9.19l5.97-0.19
        C1002.91,720.1,1003.58,720.73,1003.61,721.53z M988.72,720.54l0.29,9.2l-5.97,0.19c-0.8,0.02-1.47-0.6-1.49-1.4l-0.2-6.3
        c-0.02-0.8,0.6-1.47,1.4-1.49L988.72,720.54z" />
        <path class="st14"
          d="M988.72,720.54l0.05,1.66l-7.52,0.23c-0.03-0.91,0.69-1.68,1.6-1.71L988.72,720.54z M996.09,720.31l0.05,1.66
        l7.52-0.23c-0.03-0.91-0.79-1.63-1.71-1.6L996.09,720.31z" />
        <path class="st15"
          d="M989.09,720.53l0.29,9.2c0.01,0.2-0.15,0.37-0.36,0.38l-5.97,0.19c-1,0.03-1.84-0.76-1.87-1.76l-0.2-6.3
        c-0.03-1,0.76-1.84,1.76-1.87l5.97-0.19C988.91,720.17,989.08,720.33,989.09,720.53z M988.63,729.38l-0.26-8.46l-5.61,0.17
        c-0.59,0.02-1.07,0.52-1.05,1.11l0.2,6.3c0.02,0.59,0.52,1.07,1.11,1.05L988.63,729.38z M1003.97,721.52l0.2,6.3
        c0.03,1-0.76,1.84-1.76,1.87l-5.97,0.19c-0.2,0.01-0.37-0.15-0.38-0.36l-0.29-9.19c-0.01-0.2,0.15-0.37,0.36-0.38l5.97-0.19
        C1003.1,719.73,1003.94,720.52,1003.97,721.52z M996.78,729.12l5.61-0.17c0.59-0.02,1.07-0.52,1.05-1.11l-0.2-6.3
        c-0.02-0.59-0.52-1.07-1.11-1.05l-5.61,0.18L996.78,729.12z" />
        <path class="st15"
          d="M995.8,721.51l0.21,6.83c0.01,0.2-0.15,0.37-0.36,0.38l-7.42,0.23c-0.2,0.01-0.37-0.15-0.38-0.36l-0.21-6.83
        c-0.01-0.2,0.15-0.37,0.36-0.38l7.42-0.23C995.63,721.14,995.8,721.31,995.8,721.51z M995.27,728l-0.19-6.1l-6.68,0.21l0.19,6.1
        C988.59,728.2,995.27,728,995.27,728z M1007.78,724.54c0.01,0.2-0.15,0.37-0.36,0.38l-4.44,0.14c-0.2,0.01-0.37-0.15-0.38-0.36
        c-0.01-0.2,0.15-0.37,0.36-0.38l4.45-0.14C1007.6,724.17,1007.77,724.34,1007.78,724.54z M980.97,725.37
        c0.01,0.2-0.15,0.37-0.36,0.38l-4.44,0.14c-0.2,0.01-0.37-0.15-0.38-0.36c-0.01-0.2,0.15-0.37,0.36-0.38l4.44-0.14
        C980.8,725.01,980.97,725.17,980.97,725.37z M999.48,720.21l0.29,9.2c0.01,0.2-0.15,0.37-0.36,0.38c-0.2,0.01-0.37-0.15-0.38-0.36
        l-0.29-9.19c-0.01-0.2,0.15-0.37,0.36-0.38C999.3,719.85,999.47,720.01,999.48,720.21z M984.59,720.78l0.28,9.07
        c0.01,0.2-0.15,0.37-0.36,0.38c-0.2,0.01-0.37-0.15-0.38-0.36l-0.28-9.07c-0.01-0.2,0.15-0.37,0.36-0.38
        C984.42,720.42,984.59,720.58,984.59,720.78z" />
        <path class="st15"
          d="M994.48,721.54l0.21,6.83c0.01,0.2-0.15,0.37-0.36,0.38c-0.2,0.01-0.37-0.15-0.38-0.36l-0.21-6.83
        c-0.01-0.2,0.15-0.37,0.36-0.38C994.3,721.18,994.47,721.34,994.48,721.54z M991.19,721.65l0.21,6.83c0.01,0.2-0.15,0.37-0.36,0.38
        c-0.21,0.01-0.37-0.15-0.38-0.36l-0.21-6.83c-0.01-0.2,0.15-0.37,0.36-0.38C991.01,721.28,991.18,721.45,991.19,721.65z" />
        <path class="st11"
          d="M988.52,705.99l-0.26-6.83l7.42-0.28l0.26,6.83L988.52,705.99z" />
        <path class="st12"
          d="M988.33,700.99l-0.07-1.84l7.37-0.28l0.07,1.84L988.33,700.99z" />
        <path class="st13"
          d="M1003.11,698.86l0.24,6.3c0.03,0.8-0.59,1.47-1.39,1.5l-5.97,0.23l-0.35-9.19l5.97-0.23
        C1002.41,697.44,1003.08,698.06,1003.11,698.86z M988.22,697.98l0.35,9.19l-5.97,0.23c-0.8,0.03-1.47-0.59-1.5-1.39l-0.24-6.3
        c-0.03-0.8,0.59-1.47,1.39-1.5L988.22,697.98z" />
        <path class="st14"
          d="M988.22,697.98l0.06,1.66l-7.52,0.28c-0.03-0.91,0.68-1.68,1.59-1.72L988.22,697.98z M995.59,697.7l0.06,1.66
        l7.52-0.28c-0.03-0.91-0.81-1.63-1.72-1.59L995.59,697.7z" />
        <path class="st15"
          d="M988.58,697.96l0.35,9.19c0.01,0.2-0.15,0.37-0.35,0.38l-5.97,0.23c-1,0.04-1.84-0.74-1.88-1.74l-0.24-6.3
        c-0.04-1,0.74-1.84,1.74-1.88l5.97-0.23C988.41,697.61,988.58,697.76,988.58,697.96z M988.19,706.82l-0.32-8.46l-5.61,0.21
        c-0.59,0.02-1.06,0.53-1.04,1.12l0.24,6.3c0.02,0.59,0.53,1.06,1.12,1.04L988.19,706.82z M1003.47,698.85l0.24,6.3
        c0.04,1-0.74,1.84-1.74,1.88l-5.97,0.23c-0.2,0.01-0.37-0.15-0.38-0.35l-0.35-9.19c-0.01-0.2,0.15-0.37,0.35-0.38l5.97-0.23
        C1002.59,697.07,1003.43,697.85,1003.47,698.85z M996.33,706.51l5.61-0.21c0.59-0.02,1.06-0.53,1.04-1.12l-0.24-6.3
        c-0.02-0.59-0.53-1.06-1.12-1.04l-5.61,0.21L996.33,706.51z" />
        <path class="st15"
          d="M996.04,698.86l0.26,6.83c0.01,0.2-0.15,0.37-0.35,0.38l-7.41,0.28c-0.2,0.01-0.37-0.15-0.38-0.35l-0.26-6.83
        c-0.01-0.2,0.15-0.37,0.35-0.38l7.42-0.28C995.87,698.5,996.03,698.66,996.04,698.86z M995.56,705.35l-0.23-6.1l-6.68,0.25
        l0.23,6.1C988.87,705.61,995.56,705.35,995.56,705.35z M1008.04,701.81c0.01,0.2-0.15,0.37-0.35,0.38l-4.44,0.17
        c-0.2,0.01-0.37-0.15-0.38-0.35s0.15-0.37,0.35-0.38l4.45-0.17C1007.86,701.45,1008.03,701.61,1008.04,701.81z M981.24,702.82
        c0.01,0.2-0.15,0.37-0.35,0.38l-4.44,0.17c-0.2,0.01-0.37-0.15-0.38-0.35s0.15-0.37,0.35-0.38l4.44-0.17
        C981.06,702.46,981.23,702.62,981.24,702.82z M999.71,697.54l0.35,9.19c0.01,0.2-0.15,0.37-0.35,0.38
        c-0.2,0.01-0.37-0.15-0.38-0.35l-0.35-9.19c-0.01-0.2,0.15-0.37,0.35-0.38C999.53,697.19,999.7,697.34,999.71,697.54z
         M984.83,698.21l0.34,9.07c0.01,0.2-0.15,0.37-0.35,0.38c-0.2,0.01-0.37-0.15-0.38-0.35l-0.34-9.07c-0.01-0.2,0.15-0.37,0.35-0.38
        S984.82,698.01,984.83,698.21z" />
        <path class="st15"
          d="M993.98,698.94l0.26,6.83c0.01,0.2-0.15,0.37-0.35,0.38c-0.2,0.01-0.37-0.15-0.38-0.35l-0.26-6.83
        c-0.01-0.2,0.15-0.37,0.35-0.38C993.81,698.58,993.97,698.74,993.98,698.94z M990.69,699.06l0.26,6.83
        c0.01,0.2-0.15,0.37-0.35,0.38c-0.21,0.01-0.37-0.15-0.38-0.35l-0.26-6.83c-0.01-0.2,0.15-0.37,0.35-0.38
        C990.51,698.7,990.68,698.87,990.69,699.06z" />
        <path class="st10"
          d="M892.27,839.4c0-1.94-6.23-2.11-7.49-2.11c-1.26,0-7.49,0.08-7.49,2.11l0,18.61c0,0.93,1.43,1.43,3.03,1.77
        l0,6.74c0,0.34,0.25,0.59,0.59,0.59c0.34,0,0.59-0.25,0.59-0.59l0-6.57c1.43,0.17,2.78,0.17,3.28,0.17c0.51,0,1.85,0,3.28-0.17
        l0,6.57c0,0.34,0.25,0.59,0.59,0.59c0.34,0,0.59-0.25,0.59-0.59l0-6.74c1.6-0.25,3.03-0.76,3.03-1.77L892.27,839.4z M884.78,838.47
        c3.54,0,5.64,0.51,6.15,0.93c-0.59,0.34-2.69,0.93-6.15,0.93c-3.45,0-5.64-0.51-6.15-0.93
        C879.14,838.98,881.24,838.47,884.78,838.47z M891.1,840.58l0,16.17c-1.85-0.76-5.39-0.84-6.32-0.84c-0.93,0-4.46,0.08-6.32,0.84
        l0-16.17c1.85,0.76,5.39,0.84,6.32,0.84C885.71,841.42,889.24,841.42,891.1,840.58z M884.78,858.94c-3.54,0-5.64-0.51-6.15-0.93
        c0.59-0.34,2.69-0.93,6.15-0.93c3.54,0,5.64,0.51,6.15,0.93C890.42,858.35,888.32,858.94,884.78,858.94z" />
        <path class="st11"
          d="M988.65,749.12l-0.21-6.83l7.42-0.23l0.21,6.83L988.65,749.12z" />
        <path class="st12"
          d="M988.5,744.13l-0.06-1.84l7.37-0.23l0.06,1.84L988.5,744.13z" />
        <path class="st13"
          d="M1003.29,742.09l0.2,6.3c0.02,0.8-0.6,1.47-1.4,1.49l-5.97,0.19l-0.29-9.19l5.97-0.19
        C1002.6,740.67,1003.27,741.29,1003.29,742.09z M988.4,741.11l0.29,9.2l-5.97,0.19c-0.8,0.02-1.47-0.6-1.49-1.4l-0.2-6.3
        c-0.02-0.8,0.6-1.47,1.4-1.49L988.4,741.11z" />
        <path class="st14"
          d="M988.4,741.11l0.05,1.66l-7.52,0.23c-0.03-0.91,0.69-1.68,1.6-1.71L988.4,741.11z M995.78,740.88l0.05,1.66
        l7.52-0.23c-0.03-0.91-0.79-1.63-1.71-1.6L995.78,740.88z" />
        <path class="st15"
          d="M988.77,741.1l0.29,9.2c0.01,0.2-0.15,0.37-0.36,0.38l-5.97,0.19c-1,0.03-1.84-0.76-1.87-1.76l-0.2-6.3
        c-0.03-1,0.76-1.84,1.76-1.87l5.97-0.19C988.6,740.74,988.77,740.9,988.77,741.1z M988.32,749.95l-0.26-8.46l-5.61,0.17
        c-0.59,0.02-1.07,0.52-1.05,1.11l0.2,6.3c0.02,0.59,0.52,1.07,1.11,1.05L988.32,749.95z M1003.65,742.08l0.2,6.3
        c0.03,1-0.76,1.84-1.76,1.87l-5.97,0.19c-0.2,0.01-0.37-0.15-0.38-0.36l-0.29-9.19c-0.01-0.2,0.15-0.37,0.36-0.38l5.97-0.19
        C1002.79,740.3,1003.62,741.08,1003.65,742.08z M996.46,749.69l5.61-0.17c0.59-0.02,1.07-0.52,1.05-1.11l-0.2-6.3
        c-0.02-0.59-0.52-1.07-1.11-1.05l-5.61,0.17L996.46,749.69z" />
        <path class="st15"
          d="M995.49,742.07l0.21,6.83c0.01,0.2-0.15,0.37-0.36,0.38l-7.42,0.23c-0.2,0.01-0.37-0.15-0.38-0.36l-0.21-6.83
        c-0.01-0.2,0.15-0.37,0.36-0.38l7.42-0.23C995.31,741.71,995.48,741.88,995.49,742.07z M994.96,748.56l-0.19-6.1l-6.68,0.21
        l0.19,6.1C988.27,748.77,994.96,748.56,994.96,748.56z M1007.46,745.1c0.01,0.2-0.15,0.37-0.36,0.38l-4.44,0.14
        c-0.2,0.01-0.37-0.15-0.38-0.36c-0.01-0.2,0.15-0.37,0.36-0.38l4.45-0.14C1007.29,744.74,1007.46,744.9,1007.46,745.1z
         M980.66,745.94c0.01,0.2-0.15,0.37-0.36,0.38l-4.44,0.14c-0.2,0.01-0.37-0.15-0.38-0.36c-0.01-0.2,0.15-0.37,0.36-0.38l4.44-0.14
        C980.48,745.58,980.65,745.74,980.66,745.94z M999.16,740.78l0.29,9.2c0.01,0.2-0.15,0.37-0.36,0.38c-0.2,0.01-0.37-0.15-0.38-0.36
        l-0.29-9.19c-0.01-0.2,0.15-0.37,0.36-0.38C998.99,740.42,999.16,740.58,999.16,740.78z M984.28,741.35l0.28,9.07
        c0.01,0.2-0.15,0.37-0.36,0.38c-0.2,0.01-0.37-0.15-0.38-0.36l-0.28-9.07c-0.01-0.2,0.15-0.37,0.36-0.38
        C984.1,740.99,984.27,741.15,984.28,741.35z" />
        <path class="st15"
          d="M994.16,742.11l0.21,6.83c0.01,0.2-0.15,0.37-0.36,0.38c-0.2,0.01-0.37-0.15-0.38-0.36l-0.21-6.83
        c-0.01-0.2,0.15-0.37,0.36-0.38C993.99,741.75,994.16,741.91,994.16,742.11z M990.87,742.21l0.21,6.83
        c0.01,0.2-0.15,0.37-0.36,0.38c-0.21,0.01-0.37-0.15-0.38-0.36l-0.21-6.83c-0.01-0.2,0.15-0.37,0.36-0.38
        C990.7,741.85,990.86,742.01,990.87,742.21z" />
        <path class="st16"
          d="M1105.38,872.53h-0.51c-1.24,0-2.24-1-2.24-2.24v-0.51c0-1.24,1-2.24,2.24-2.24h0.51c1.24,0,2.24,1,2.24,2.24
        v0.51C1107.62,871.53,1106.61,872.53,1105.38,872.53z" />
        <path class="st16"
          d="M1088.83,871.14L1088.83,871.14c-0.61,1.23-2.11,1.74-3.34,1.13l0,0c-1.23-0.61-1.74-2.11-1.13-3.34l0,0
        c0.61-1.23,2.11-1.74,3.34-1.13l0,0C1088.93,868.41,1089.44,869.91,1088.83,871.14z" />
        <path class="st16"
          d="M1070.3,871.14L1070.3,871.14c-0.61,1.23-2.11,1.74-3.34,1.13l0,0c-1.23-0.61-1.74-2.11-1.13-3.34l0,0
        c0.61-1.23,2.11-1.74,3.34-1.13l0,0C1070.41,868.41,1070.91,869.91,1070.3,871.14z" />
        <path class="st16"
          d="M1051.77,871.14L1051.77,871.14c-0.61,1.23-2.11,1.74-3.34,1.13l0,0c-1.23-0.61-1.74-2.11-1.13-3.34l0,0
        c0.61-1.23,2.11-1.74,3.34-1.13l0,0C1051.88,868.41,1052.38,869.91,1051.77,871.14z" />
        <path class="st16"
          d="M1033.24,871.13L1033.24,871.13c-0.61,1.23-2.11,1.74-3.34,1.13l0,0c-1.23-0.61-1.74-2.11-1.13-3.34l0,0
        c0.61-1.23,2.11-1.74,3.34-1.13l0,0C1033.35,868.4,1033.85,869.9,1033.24,871.13z" />
        <path class="st16"
          d="M1014.71,871.13L1014.71,871.13c-0.61,1.23-2.11,1.74-3.34,1.13l0,0c-1.23-0.61-1.74-2.11-1.13-3.34l0,0
        c0.61-1.23,2.11-1.74,3.34-1.13l0,0C1014.82,868.4,1015.32,869.9,1014.71,871.13z" />
        <path class="st16"
          d="M996.18,871.13L996.18,871.13c-0.61,1.23-2.11,1.74-3.34,1.13l0,0c-1.23-0.61-1.74-2.11-1.13-3.34l0,0
        c0.61-1.23,2.11-1.74,3.34-1.13l0,0C996.29,868.4,996.8,869.9,996.18,871.13z" />
        <path class="st16"
          d="M977.66,871.13L977.66,871.13c-0.61,1.23-2.11,1.74-3.34,1.13l0,0c-1.23-0.61-1.74-2.11-1.13-3.34l0,0
        c0.61-1.23,2.11-1.74,3.34-1.13l0,0C977.76,868.4,978.27,869.9,977.66,871.13z" />
        <path class="st17" d="M920.19,773.27" />
        <path class="st18" d="M914.27,804.65" />
        <g>
          <text
            transform="matrix(2.359758e-05 -1 1 2.359758e-05 1105.5247 858.3952)"
            class="st10 st6 st19">GND</text>
        </g>
        <g>
          <text
            transform="matrix(2.359758e-05 -1 1 2.359758e-05 1087.3279 859.5231)"
            class="st10 st6 st19">+5V</text>
        </g>
        <g>
          <text
            transform="matrix(2.359758e-05 -1 1 2.359758e-05 1069.0901 858.7653)"
            class="st10 st6 st19">3.3V</text>
        </g>
        <path class="st16"
          d="M1094.74,674.84h-0.51c-1.24,0-2.24-1-2.24-2.24v-0.51c0-1.24,1-2.24,2.24-2.24h0.51c1.24,0,2.24,1,2.24,2.24
        v0.51C1096.98,673.84,1095.98,674.84,1094.74,674.84z" />
        <path class="st16"
          d="M1079.71,673.46L1079.71,673.46c-0.61,1.23-2.11,1.74-3.34,1.13l0,0c-1.23-0.61-1.74-2.11-1.13-3.34l0,0
        c0.61-1.23,2.11-1.74,3.34-1.13l0,0C1079.81,670.73,1080.32,672.22,1079.71,673.46z" />
        <path class="st16"
          d="M1062.7,673.46L1062.7,673.46c-0.61,1.23-2.11,1.74-3.34,1.13l0,0c-1.23-0.61-1.74-2.11-1.13-3.34l0,0
        c0.61-1.23,2.11-1.74,3.34-1.13l0,0C1062.8,670.73,1063.31,672.22,1062.7,673.46z" />
        <path class="st16"
          d="M1045.69,673.46L1045.69,673.46c-0.61,1.23-2.11,1.74-3.34,1.13l0,0c-1.23-0.61-1.74-2.11-1.13-3.34l0,0
        c0.61-1.23,2.11-1.74,3.34-1.13l0,0C1045.79,670.73,1046.3,672.22,1045.69,673.46z" />
        <path class="st16"
          d="M1028.67,673.45L1028.67,673.45c-0.61,1.23-2.11,1.74-3.34,1.13l0,0c-1.23-0.61-1.74-2.11-1.13-3.34l0,0
        c0.61-1.23,2.11-1.74,3.34-1.13l0,0C1028.78,670.72,1029.29,672.21,1028.67,673.45z" />
        <path class="st16"
          d="M1011.66,673.45L1011.66,673.45c-0.61,1.23-2.11,1.74-3.34,1.13l0,0c-1.23-0.61-1.74-2.11-1.13-3.34l0,0
        c0.61-1.23,2.11-1.74,3.34-1.13l0,0C1011.77,670.72,1012.27,672.21,1011.66,673.45z" />
        <path class="st16"
          d="M994.65,673.45L994.65,673.45c-0.61,1.23-2.11,1.74-3.34,1.13l0,0c-1.23-0.61-1.74-2.11-1.13-3.34l0,0
        c0.61-1.23,2.11-1.74,3.34-1.13l0,0C994.76,670.72,995.26,672.21,994.65,673.45z" />
        <path class="st16"
          d="M977.64,673.45L977.64,673.45c-0.61,1.23-2.11,1.74-3.34,1.13l0,0c-1.23-0.61-1.74-2.11-1.13-3.34l0,0
        c0.61-1.23,2.11-1.74,3.34-1.13l0,0C977.75,670.72,978.25,672.21,977.64,673.45z" />
        <path class="st16"
          d="M960.63,673.57L960.63,673.57c-0.61,1.23-2.11,1.74-3.34,1.13l0,0c-1.23-0.61-1.74-2.11-1.13-3.34l0,0
        c0.61-1.23,2.11-1.74,3.34-1.13l0,0C960.74,670.84,961.24,672.33,960.63,673.57z" />
        <g>
          <text
            transform="matrix(2.359758e-05 -1 1 2.359758e-05 976.7787 857.4714)"
            class="st10 st6 st19">A0</text>
        </g>
        <g>
          <text
            transform="matrix(2.359758e-05 -1 1 2.359758e-05 996.268 857.6091)"
            class="st10 st6 st19">A1</text>
        </g>
        <g>
          <text
            transform="matrix(2.359758e-05 -1 1 2.359758e-05 1014.4915 857.3434)"
            class="st10 st6 st19">A2</text>
        </g>
        <g>
          <text
            transform="matrix(2.359758e-05 -1 1 2.359758e-05 1032.736 857.4694)"
            class="st10 st6 st19">A3</text>
        </g>
        <g>
          <text
            transform="matrix(2.359758e-05 -1 1 2.359758e-05 1050.9646 857.2126)"
            class="st10 st6 st19">A4</text>
        </g>
        <g>
          <text
            transform="matrix(1 2.359758e-05 -2.359758e-05 1 1092.0819 661.0764)"
            class="st10 st6 st19">1</text>
        </g>
        <g>
          <text
            transform="matrix(1 2.359758e-05 -2.359758e-05 1 1075.2079 662.19)"
            class="st10 st6 st19">2</text>
        </g>
        <g>
          <text
            transform="matrix(1 2.359758e-05 -2.359758e-05 1 1058.1802 662.1917)"
            class="st10 st6 st19">3</text>
        </g>
        <g>
          <text
            transform="matrix(1 2.359758e-05 -2.359758e-05 1 1041.1459 662.1902)"
            class="st10 st6 st19">4</text>
        </g>
        <g>
          <text
            transform="matrix(1 2.359758e-05 -2.359758e-05 1 1024.1019 662.1924)"
            class="st10 st6 st19">5</text>
        </g>
        <g>
          <text
            transform="matrix(1 2.359758e-05 -2.359758e-05 1 1007.0872 662.1888)"
            class="st10 st6 st19">6</text>
        </g>
        <g>
          <text
            transform="matrix(1 2.359758e-05 -2.359758e-05 1 989.9995 662.1885)"
            class="st10 st6 st19">7</text>
        </g>
        <g>
          <text
            transform="matrix(1 2.359758e-05 -2.359758e-05 1 973.0789 662.1879)"
            class="st10 st6 st19">8</text>
        </g>
        <g>
          <text
            transform="matrix(1 2.359758e-05 -2.359758e-05 1 956.047 662.1884)"
            class="st10 st6 st19">9</text>
        </g>
        <path class="st16"
          d="M943.62,673.57L943.62,673.57c-0.61,1.23-2.11,1.74-3.34,1.13l0,0c-1.23-0.61-1.74-2.11-1.13-3.34l0,0
        c0.61-1.23,2.11-1.74,3.34-1.13l0,0C943.72,670.84,944.23,672.33,943.62,673.57z" />
        <g>
          <text
            transform="matrix(1 2.359758e-05 -2.359758e-05 1 936.9003 662.3951)"
            class="st10 st6 st19">10 </text>
        </g>
        <path class="st16"
          d="M926.61,673.45L926.61,673.45c-0.61,1.23-2.11,1.74-3.34,1.13l0,0c-1.23-0.61-1.74-2.11-1.13-3.34l0,0
        c0.61-1.23,2.11-1.74,3.34-1.13l0,0C926.71,670.72,927.22,672.21,926.61,673.45z" />
        <path class="st16"
          d="M909.6,673.45L909.6,673.45c-0.61,1.23-2.11,1.74-3.34,1.13l0,0c-1.23-0.61-1.74-2.11-1.13-3.34l0,0
        c0.61-1.23,2.11-1.74,3.34-1.13l0,0C909.7,670.72,910.21,672.21,909.6,673.45z" />
        <path class="st16"
          d="M892.58,673.45L892.58,673.45c-0.61,1.23-2.11,1.74-3.34,1.13l0,0c-1.23-0.61-1.74-2.11-1.13-3.34l0,0
        c0.61-1.23,2.11-1.74,3.34-1.13l0,0C892.69,670.72,893.2,672.21,892.58,673.45z" />
        <g>
          <text
            transform="matrix(1 2.359758e-05 -2.359758e-05 1 920.1224 662.4825)"
            class="st10 st6 st19">11</text>
        </g>
        <g>
          <text
            transform="matrix(1 2.359758e-05 -2.359758e-05 1 902.9093 662.4849)"
            class="st10 st6 st19">12</text>
        </g>
        <g>
          <text
            transform="matrix(1 2.359758e-05 -2.359758e-05 1 885.9454 662.4833)"
            class="st10 st6 st19">13</text>
        </g>
        <path class="st16"
          d="M1111.75,674.97h-0.51c-1.24,0-2.24-1-2.24-2.24v-0.51c0-1.24,1-2.24,2.24-2.24l0.51,0
        c1.24,0,2.24,1,2.24,2.24v0.51C1113.99,673.96,1112.99,674.97,1111.75,674.97z" />
        <g>
          <text
            transform="matrix(1 2.359758e-05 -2.359758e-05 1 1109.1635 661.0787)"
            class="st10 st6 st19">0</text>
        </g>
        <text
          transform="matrix(1 2.359758e-05 -2.359758e-05 1 1058.2449 682.1464)"
          class="st8 st6 st19">~</text>
        <text
          transform="matrix(1 2.359758e-05 -2.359758e-05 1 1024.3641 682.3004)"
          class="st8 st6 st19">~</text>
        <text
          transform="matrix(1 2.359758e-05 -2.359758e-05 1 1007.2701 682.1694)"
          class="st8 st6 st19">~</text>
        <text
          transform="matrix(1 2.359758e-05 -2.359758e-05 1 956.2943 682.2985)"
          class="st8 st6 st19">~</text>
        <text
          transform="matrix(1 2.359758e-05 -2.359758e-05 1 939.2278 682.5783)"
          class="st8 st6 st19">~</text>
        <text transform="matrix(1 2.359758e-05 -2.359758e-05 1 922.2843 682.45)"
          class="st8 st6 st19">~</text>
      </g>
      <g>
        <ellipse class="st20" cx="1540.66" cy="978.48" rx="105" ry="40" />
        <ellipse class="st21" cx="1540.66" cy="919.48" rx="105" ry="40" />
        <path class="st22"
          d="M1435.66,924.48c0,6.82,0,13.64,0,20.45c0,3.28,0,6.57,0,9.85c0,6.57,0,13.13,0,19.7" />
        <line class="st23" x1="1645.66" y1="924.48" x2="1645.66" y2="974.48" />
        <rect x="1454.57" y="945.48" class="st24" width="5.19" height="56" />
        <rect x="1494.57" y="957.48" class="st25" width="5.19" height="56" />
        <rect x="1578.57" y="958.48" class="st25" width="5.19" height="56" />
        <rect x="1535.57" y="961.48" class="st24" width="5.19" height="56" />
        <rect x="1619.57" y="945.48" class="st24" width="5.19" height="56" />
        <ellipse class="st26" id="red" cx="1514.16" cy="936.98" rx="7" ry="5" />
        <ellipse class="st27" cx="1514.16" cy="936.72" rx="4.08" ry="2.11" />
        <ellipse class="st28" cx="1567.16" cy="936.98" rx="7" ry="5" />
        <ellipse class="st29" cx="1567.16" cy="936.72" rx="4.08" ry="2.11" />
        <path class="st21" d="M1491.66,893.48" />
        <path class="st21" d="M1520.66,918.48" />
        <rect x="1520.16" y="765.98" class="st30" width="35" height="138.46" />
        <path class="st31" d="M1544.66,786.48" />
        <g>
          <g class="st32">
            <path class="st33"
              d="M1499.65,765.48c-7.16,0-12.99-5.83-12.99-12.99V575.47c0-7.16,5.83-12.99,12.99-12.99h72.02
            c7.16,0,12.99,5.83,12.99,12.99v177.02c0,7.16-5.83,12.99-12.99,12.99H1499.65z" />
            <path class="st8"
              d="M1571.67,563.98c6.34,0,11.49,5.15,11.49,11.49v177.02c0,6.34-5.15,11.49-11.49,11.49h-72.02
            c-6.34,0-11.49-5.15-11.49-11.49V575.47c0-6.34,5.15-11.49,11.49-11.49H1571.67 M1571.67,560.98h-72.02
            c-8,0-14.49,6.49-14.49,14.49v177.02c0,8,6.49,14.49,14.49,14.49h72.02c8,0,14.49-6.49,14.49-14.49V575.47
            C1586.16,567.47,1579.67,560.98,1571.67,560.98L1571.67,560.98z" />
          </g>
          <g>
            <path class="st34"
              d="M1509.78,747.48c-4.48,0-8.12-3.64-8.12-8.12V589.6c0-4.48,3.64-8.12,8.12-8.12h51.77
            c4.48,0,8.12,3.64,8.12,8.12v149.77c0,4.48-3.64,8.12-8.12,8.12H1509.78z" />
            <path class="st8"
              d="M1561.54,582.98c3.65,0,6.62,2.97,6.62,6.62v149.77c0,3.65-2.97,6.62-6.62,6.62h-51.77
            c-3.65,0-6.62-2.97-6.62-6.62V589.6c0-3.65,2.97-6.62,6.62-6.62H1561.54 M1561.54,579.98h-51.77c-5.31,0-9.62,4.31-9.62,9.62
            v149.77c0,5.31,4.31,9.62,9.62,9.62h51.77c5.31,0,9.62-4.31,9.62-9.62V589.6C1571.16,584.29,1566.85,579.98,1561.54,579.98
            L1561.54,579.98z" />
          </g>
          <g>
            <circle class="st35" id="red_led" cx="1535.66" cy="614.48" r="16" />
            <path class="st8"
              d="M1535.66,599.98c8,0,14.5,6.5,14.5,14.5s-6.5,14.5-14.5,14.5s-14.5-6.5-14.5-14.5
            S1527.66,599.98,1535.66,599.98 M1535.66,596.98L1535.66,596.98c-9.67,0-17.5,7.84-17.5,17.5s7.84,17.5,17.5,17.5h0
            c9.66,0,17.5-7.84,17.5-17.5S1545.32,596.98,1535.66,596.98L1535.66,596.98z" />
          </g>
          <g>
            <circle class="st36" cx="1535.66" cy="663.48" r="16" />
            <path class="st8"
              d="M1535.66,648.98c8,0,14.5,6.5,14.5,14.5s-6.5,14.5-14.5,14.5s-14.5-6.5-14.5-14.5
            S1527.66,648.98,1535.66,648.98 M1535.66,645.98L1535.66,645.98c-9.67,0-17.5,7.84-17.5,17.5s7.84,17.5,17.5,17.5h0
            c9.66,0,17.5-7.84,17.5-17.5S1545.32,645.98,1535.66,645.98L1535.66,645.98z" />
          </g>
          <g>
            <circle class="st37" cx="1535.66" cy="712.48" r="16" />
            <path class="st8"
              d="M1535.66,697.98c8,0,14.5,6.5,14.5,14.5s-6.5,14.5-14.5,14.5s-14.5-6.5-14.5-14.5
            S1527.66,697.98,1535.66,697.98 M1535.66,694.98L1535.66,694.98c-9.67,0-17.5,7.84-17.5,17.5s7.84,17.5,17.5,17.5h0
            c9.66,0,17.5-7.84,17.5-17.5S1545.32,694.98,1535.66,694.98L1535.66,694.98z" />
          </g>
        </g>
        <ellipse class="st38" cx="1537.66" cy="903.66" rx="17.5" ry="6.49" />
        <text transform="matrix(1 0 0 1 1499.9539 924.5521)"
          class="st8 st39 st40">VCC</text>
        <text transform="matrix(1 0 0 1 1554.8474 924.2816)"
          class="st8 st39 st40">GND</text>
      </g>
      <path class="st41" d="M1796.37,581.76" />
      <path class="st42" d="M1245.22,940.91" />
      <g>
        <path class="st42" d="M1086.54,900.25" />
      </g>
      <g>
        <path class="st42" d="M1105.17,872.3" />
      </g>
      <g>
        <g>
          <path class="st43" id="black"
            d="M1567.82,923.6l-1.35,0.1l-0.17-2.33l-0.08-1.16l-0.15-2.34c-0.34-5.72-0.57-11.45-0.67-17.18
          c-0.1-5.73-0.08-11.46,0.05-17.2l0.13-4.31c0.07-1.45,0.22-2.96,0.76-4.42c0.5-1.46,1.58-2.82,2.97-3.59
          c1.37-0.79,2.9-1.1,4.36-1.26c1.48-0.16,2.92-0.15,4.34-0.18l4.29-0.09l8.58-0.18l17.16-0.37l34.33-0.73l34.77-0.74
          c0.18-0.06,0.16,0.16,0.22,0.26l0.14,0.39l0.26,0.74l0.36,1.01l0.71,2.03l1.42,4.06c0.96,2.7,1.79,5.44,2.69,8.16
          c0.91,2.72,1.71,5.47,2.54,8.21l1.23,4.12l1.15,4.14c6.18,22.08,10.51,44.66,13.2,67.43c1.36,11.38,2.19,22.83,2.63,34.28
          l0.17,4.3l0.08,4.3c0.03,2.87,0.13,5.73,0.08,8.6l-0.03,4.3l-0.01,2.2l-0.01,1.64c0.03,0.1-0.08,0.06-0.14,0.07l-0.21,0.01
          l-0.41,0.02l-0.83,0.03l-8.68,0.32c-40.89,1.36-81.67,5.24-122.32,9.97c-40.65,4.77-81.22,10.32-121.9,14.97
          c-40.68,4.63-81.5,8.52-122.47,9.48l-15.36,0.26c-2.56,0.02-5.12,0.14-7.68,0.08l-7.68-0.11l-15.36-0.22
          c-2.56-0.01-5.12-0.17-7.68-0.25c-2.56-0.1-5.12-0.19-7.67-0.33c-20.46-0.96-40.88-2.56-61.3-3.85
          c-20.42-1.3-40.86-2.27-61.31-2.04l-7.66,0.16c-2.55,0.04-5.11,0.2-7.66,0.3l-3.83,0.17l-3.82,0.26l-3.82,0.26l-2.03,0.14
          l-1.47,0.1c-0.15,0.04-0.24,0.01-0.2-0.16l-0.02-0.37l-0.04-0.73l-1.48-30.92l-5.86-122.68l-0.98-20.59l1.35-0.06l0.98,20.59
          l5.86,122.68l1.45,30.42l0.01,0.23l0.01,0.11c-0.01,0.05,0.02,0.06,0.06,0.05l0.44-0.03l1.8-0.12l3.84-0.26l3.84-0.26l3.84-0.17
          c2.56-0.1,5.12-0.26,7.68-0.3l7.69-0.16c20.5-0.24,40.98,0.74,61.41,2.04c20.43,1.29,40.84,2.89,61.27,3.85
          c2.55,0.14,5.11,0.23,7.66,0.33c2.56,0.08,5.11,0.24,7.67,0.25l15.34,0.22l7.67,0.11c2.56,0.06,5.11-0.06,7.67-0.08l15.34-0.26
          c40.91-0.96,81.69-4.85,122.35-9.47c40.66-4.65,81.23-10.2,121.9-14.97c40.67-4.73,81.48-8.62,122.43-9.98l8.48-0.31
          c0.15-0.01,0.35,0.01,0.48-0.04l0-0.51l0.01-2.09l0.03-4.29c0.05-2.86-0.05-5.71-0.08-8.57l-0.07-4.28l-0.17-4.28
          c-0.45-11.42-1.27-22.83-2.62-34.17c-2.69-22.69-7-45.21-13.16-67.22l-1.14-4.13l-1.23-4.11c-0.82-2.74-1.62-5.48-2.53-8.19
          c-0.9-2.71-1.73-5.45-2.68-8.14l-1.42-4.04l-0.71-2.02l-0.35-1.01l-0.1-0.28c-0.04-0.06-0.03-0.2-0.11-0.2l-33.88,0.72
          l-34.33,0.73l-17.16,0.37l-8.58,0.18l-4.29,0.09c-1.43,0.04-2.86,0.03-4.23,0.18c-1.37,0.15-2.71,0.44-3.83,1.09
          c-1.12,0.64-1.94,1.65-2.38,2.89c-0.88,2.49-0.66,5.45-0.8,8.29c-0.13,5.71-0.15,11.43-0.05,17.14c0.1,5.71,0.33,11.42,0.67,17.13
          l0.15,2.33l0.08,1.16L1567.82,923.6z" />
          <g>
            <path class="st44"
              d="M1568.2,935.57c-0.19,0.02-0.36-0.12-0.38-0.31c-0.2-1.93-0.38-3.86-0.55-5.8
            c-0.02-0.19,0.12-0.36,0.32-0.38c0.19-0.02,0.36,0.13,0.38,0.32c0.17,1.93,0.36,3.86,0.55,5.79
            C1568.53,935.38,1568.39,935.55,1568.2,935.57z" />
            <path class="st43"
              d="M1568.06,930.45l-0.7,0.06c-0.38,0.04-0.72-0.25-0.76-0.63c-0.22-2.4-0.41-4.81-0.58-7.21
            c-0.02-0.26,0.17-0.48,0.43-0.5l1.16-0.08c0.26-0.02,0.48,0.17,0.5,0.43c0.17,2.39,0.36,4.78,0.58,7.17
            C1568.72,930.07,1568.44,930.41,1568.06,930.45z" />
          </g>
          <g>
            <path class="st44"
              d="M1104.22,870.03c0.19-0.01,0.36,0.14,0.37,0.33l0.28,5.81c0.01,0.19-0.14,0.36-0.33,0.37
            c-0.19,0.01-0.36-0.14-0.37-0.33l-0.28-5.81C1103.88,870.2,1104.03,870.04,1104.22,870.03z" />
            <path class="st43"
              d="M1104.12,875.16l0.7-0.03c0.39-0.02,0.71,0.28,0.73,0.66l0.34,7.21c0.01,0.26-0.19,0.47-0.44,0.49
            l-1.16,0.06c-0.26,0.01-0.47-0.19-0.49-0.44l-0.34-7.21C1103.44,875.51,1103.74,875.18,1104.12,875.16z" />
          </g>
        </g>
      </g>
      <g>
        <g>
          <path class="st45"
          id="red_line"
            d="M1512.91,923.89l-1.32,0.07l-1.72-31.69l-2.6-47.46c-0.16-1.89-0.71-3.76-2.25-4.55
          c-1.52-0.81-3.56-0.71-5.54-0.82l-11.88-0.49l-23.76-0.95c-31.68-1.22-63.37-2.26-95.06-3.11c-63.39-1.7-126.79-2.65-190.2-2.87
          l-47.56-0.03l-23.78,0.09l-11.89,0.08l-5.94,0.04l-2.97,0.02l-1.13,0.01l-0.17,0c-0.05,0-0.14-0.02-0.11,0.06l0.02,0.35
          l1.09,24.22l-1.32,0.06l-1.11-24.67l-0.05-1.14c-0.09-0.27,0.18-0.19,0.36-0.2l0.57,0l1.85-0.01l2.97-0.02l5.95-0.04l11.89-0.08
          l23.78-0.09l47.56,0.03c63.42,0.23,126.84,1.17,190.23,2.87c31.7,0.85,63.39,1.89,95.08,3.11l23.76,0.95l11.88,0.49
          c0.99,0.05,1.97,0.06,3,0.15c1.02,0.1,2.1,0.28,3.11,0.82c1.01,0.53,1.8,1.48,2.23,2.5c0.44,1.02,0.61,2.07,0.7,3.09l2.61,47.52
          L1512.91,923.89z" />
          <g>
            <path class="st46"
              d="M1512.89,935.62c-0.19,0.01-0.35-0.13-0.36-0.32l-0.31-5.68c-0.01-0.19,0.13-0.35,0.32-0.36
            c0.19-0.01,0.35,0.13,0.36,0.32l0.31,5.68C1513.22,935.45,1513.07,935.61,1512.89,935.62z" />
            <path class="st47"
              d="M1512.95,930.6l-0.68,0.04c-0.38,0.02-0.7-0.27-0.72-0.64l-0.38-7.04c-0.01-0.25,0.18-0.47,0.43-0.48
            l1.14-0.06c0.25-0.01,0.47,0.18,0.48,0.43l0.38,7.04C1513.62,930.26,1513.33,930.58,1512.95,930.6z" />
          </g>
          <g>
            <path class="st46"
              d="M1086.01,868.68c-0.19,0.01-0.35-0.14-0.36-0.33l-0.26-5.68c-0.01-0.19,0.14-0.35,0.33-0.36
            s0.35,0.14,0.36,0.33l0.26,5.68C1086.35,868.51,1086.2,868.67,1086.01,868.68z" />
            <path class="st47"
              d="M1086.13,863.66l-0.68,0.03c-0.38,0.02-0.7-0.27-0.71-0.65l-0.32-7.05c-0.01-0.25,0.18-0.46,0.43-0.48
            l1.14-0.05c0.25-0.01,0.46,0.18,0.48,0.43l0.32,7.05C1086.8,863.33,1086.5,863.64,1086.13,863.66z" />
          </g>
        </g>
      </g>
      <!-- 红线-->
      <g id="red_blur">
        <defs>
          <filter id="red_blur_line">
            <feGaussianBlur in="SourceGraphic" stdDeviation="5" />
          </filter>
        </defs>
        <rect filter="url(#red_blur_line)" rx="4" ry="4"  width="35" height="5" fill="red" />
      </g>
      <g id="rect">
        <defs>
          <filter id="blur">
            <feGaussianBlur in="SourceGraphic" stdDeviation="5" />
          </filter>
        </defs>
        <rect filter="url(#blur)" rx="4" ry="4"  width="35" height="5" fill="black" />
      </g>
    </svg>