<?xml version="1.0" standalone="no"?><!DOCTYPE svg PUBLIC "-//W3C//DTD SVG 1.1//EN" "http://www.w3.org/Graphics/SVG/1.1/DTD/svg11.dtd"><svg t="1718174457972" class="icon" viewBox="0 0 1024 1024" version="1.1" xmlns="http://www.w3.org/2000/svg" p-id="2263" xmlns:xlink="http://www.w3.org/1999/xlink" width="16" height="16"><path d="M511.3856 1021.3376c-147.456 0-294.7072-0.8192-442.1632 0.6144-32.3584 0.4096-67.7888-37.2736-67.584-68.1984 0.4096-147.2512 0-294.2976 0-441.344 0-144.384 0.8192-288.768-0.6144-433.152C0.8192 41.984 35.0208 3.072 76.5952 2.2528c4.3008 0 8.6016-0.2048 12.9024-0.2048h848.6912c28.2624 0 51.6096 9.6256 69.0176 32.3584 10.4448 13.5168 13.7216 29.0816 15.36 45.4656 0.2048 2.8672 0 5.9392 0 9.0112V942.08c0 25.3952-7.9872 47.3088-27.8528 64.1024-11.264 9.4208-23.552 15.36-38.912 15.36-148.0704-0.4096-296.3456-0.2048-444.416-0.2048z m89.2928-762.2656c1.024-29.696-1.024-58.1632-8.192-86.2208-3.072-12.0832-7.3728-23.7568-14.1312-34.4064-16.1792-25.6-43.4176-35.2256-73.5232-26.4192-34.4064 10.0352-64.3072 28.2624-91.9552 50.3808-38.5024 31.1296-67.584 69.632-89.4976 114.0736-9.6256 19.456-17.6128 39.5264-24.576 60.0064-1.024 3.2768-1.2288 9.216-5.9392 8.3968-3.8912-0.6144-2.2528-6.144-2.2528-9.4208 0.2048-18.6368 0-37.2736 1.2288-55.9104 3.2768-53.0432 13.1072-104.6528 29.4912-155.0336 2.6624-8.6016 1.6384-9.8304-7.168-10.24-13.312-0.4096-26.2144 2.8672-39.5264 3.4816-29.9008 1.4336-60.0064 2.8672-89.7024 5.3248-30.9248 2.6624-61.8496 4.096-92.9792 5.9392-11.0592 0.6144-22.1184 1.2288-33.1776 1.6384-5.12 0.2048-9.216 1.6384-9.6256 7.5776-0.6144 12.9024-0.2048 26.0096 3.8912 38.5024 1.8432 5.3248 5.3248 8.8064 11.0592 9.4208 10.6496 1.024 21.504 2.4576 32.3584 2.8672 23.3472 1.024 33.1776 10.8544 33.792 34.4064l1.2288 45.4656c1.024 36.2496 4.096 72.2944 8.3968 108.3392 7.3728 61.6448 17.6128 122.6752 34.6112 182.4768 1.2288 4.096 5.12 9.216 1.024 12.9024-3.6864 3.4816-8.8064-0.2048-13.1072-1.4336-17.2032-5.12-34.4064-6.9632-52.0192-1.6384-6.144 1.8432-9.8304 5.12-9.6256 12.0832 0.6144 21.7088 1.024 43.2128 1.8432 64.9216 0.2048 7.3728 3.072 8.8064 9.216 4.7104 14.336-9.0112 30.1056-13.5168 46.6944-15.36 15.5648-1.6384 31.1296-2.2528 46.8992-1.8432 41.7792 0.8192 82.1248 9.0112 120.832 24.3712 2.8672 1.2288 6.3488 3.2768 9.216 1.024 3.6864-2.6624 1.024-6.5536 0.2048-9.8304-10.6496-41.7792-19.6608-83.7632-26.4192-126.3616-2.048-12.6976-3.8912-25.6-1.6384-38.7072 4.3008-26.0096 9.6256-51.6096 18.2272-76.5952 9.216-26.4192 20.2752-52.0192 37.888-74.1376 3.8912-4.9152 8.192-9.4208 12.6976-13.5168 22.7328-19.8656 47.7184-13.9264 59.392 13.9264 12.4928 29.0816 13.9264 60.0064 14.9504 90.7264 1.6384 49.7664-1.2288 99.5328-11.0592 148.6848-5.3248 26.4192-11.8784 52.224-22.528 77.0048-4.5056 10.6496-4.096 12.4928 6.9632 15.36 39.5264 10.0352 79.0528 20.2752 118.784 29.9008 23.1424 5.5296 46.4896 10.24 69.632 15.36 5.9392 1.4336 9.216-0.2048 11.264-5.9392 2.048-6.144 4.3008-12.288 6.9632-18.2272 3.072-6.7584 0.6144-10.8544-5.7344-13.312-9.8304-3.8912-19.456-8.3968-29.2864-11.8784-9.8304-3.2768-14.7456-9.0112-16.384-19.6608-4.9152-32.768-5.12-65.7408-4.7104-98.9184 0-2.8672 1.024-5.9392 1.8432-8.6016 12.0832-41.5744 28.672-81.1008 49.152-119.1936 15.5648-28.8768 32.5632-56.9344 55.0912-81.1008 10.6496-11.4688 22.7328-20.8896 38.0928-24.9856 18.2272-4.9152 30.1056 3.072 32.9728 21.7088 4.096 26.2144-0.6144 51.8144-6.144 77.2096-8.192 38.2976-20.6848 75.1616-34.4064 111.616-13.1072 34.6112-26.624 69.2224-45.8752 101.1712-1.8432 3.072-5.5296 6.3488-3.2768 10.24 2.2528 3.8912 6.7584 2.8672 10.4448 2.6624 17.6128-0.4096 35.0208-1.4336 52.6336-1.2288 59.392 0.4096 118.9888-1.8432 178.3808 1.4336 10.4448 0.6144 11.8784-1.8432 7.5776-11.264-3.4816-7.5776-7.5776-14.9504-11.264-22.528-2.6624-5.7344-7.168-8.3968-13.1072-9.6256-23.9616-4.7104-47.7184-9.4208-71.4752-14.336-3.2768-0.6144-7.5776-0.4096-8.8064-4.5056s2.8672-6.144 5.3248-8.3968c19.8656-17.2032 37.888-36.2496 54.6816-56.5248 39.5264-47.9232 67.584-101.1712 72.2944-164.4544 3.072-39.3216-3.2768-76.3904-24.7808-110.3872-33.3824-52.6336-91.7504-69.0176-148.0704-51.2-38.0928 12.0832-66.9696 37.0688-91.9552 66.7648-27.4432 32.5632-52.4288 66.9696-73.3184 104.0384-1.024 1.8432-2.048 5.3248-5.12 3.8912-2.2528-1.024-0.8192-3.8912-0.6144-5.9392 3.2768-30.5152 7.168-60.8256 5.7344-90.7264z m-4.9152 698.7776c10.6496 0.2048 21.0944-0.8192 31.5392-1.4336 33.3824-2.048 66.1504-7.5776 97.4848-19.2512 43.8272-16.384 78.0288-43.8272 97.28-87.6544 11.0592-25.1904 14.9504-51.8144 15.7696-79.0528 0.4096-13.1072-1.2288-25.8048-6.144-38.0928-2.2528-5.5296-5.5296-7.5776-11.264-5.3248-4.096 1.6384-7.9872 3.2768-12.288 4.096-5.7344 1.2288-8.6016 4.3008-9.8304 10.24-3.8912 18.8416-13.5168 33.9968-30.3104 44.2368-28.2624 17.2032-58.368 29.4912-90.7264 35.84-26.8288 5.3248-53.8624 6.3488-81.3056 5.3248-31.744-1.4336-63.6928-2.2528-95.4368-4.9152-56.32-4.9152-112.2304-12.6976-167.3216-24.9856-21.9136-4.9152-43.6224-10.8544-64.1024-20.0704-26.2144-11.8784-50.176-26.0096-49.5616-60.2112 0-3.6864-2.4576-6.144-5.9392-6.7584-10.4448-1.6384-20.6848-3.8912-31.3344-3.8912-3.6864 0-6.9632 1.2288-9.216 4.3008-19.0464 27.4432-26.4192 61.8496-6.3488 93.5936 15.9744 25.1904 39.7312 41.7792 64.9216 56.5248 44.032 25.6 91.5456 42.5984 140.288 56.9344 27.648 8.192 55.9104 14.9504 84.1728 21.0944 45.6704 10.0352 92.16 18.8416 139.6736 19.456z" fill="#248B8F" p-id="2264"></path></svg>